<?xml version="1.0" encoding="UTF-8"?>
<!DOCTYPE svg PUBLIC "-//W3C//DTD SVG 1.1//EN" "http://www.w3.org/Graphics/SVG/1.1/DTD/svg11.dtd">
<svg xmlns="http://www.w3.org/2000/svg" version="1.1" width="512px" height="512px" style="shape-rendering:geometricPrecision; text-rendering:geometricPrecision; image-rendering:optimizeQuality; fill-rule:evenodd; clip-rule:evenodd" xmlns:xlink="http://www.w3.org/1999/xlink">
<g><path style="opacity:0.965" fill="#000000" d="M 47.5,41.5 C 186.5,41.3333 325.5,41.5 464.5,42C 485.123,46.289 497.289,58.789 501,79.5C 501.667,164.833 501.667,250.167 501,335.5C 497.167,356.667 484.667,369.167 463.5,373C 412.83,373.167 362.163,373.667 311.5,374.5C 318.57,404.373 334.237,428.539 358.5,447C 369.265,447.046 379.931,447.713 390.5,449C 396.062,455.62 395.728,461.953 389.5,468C 301.223,469.659 212.89,469.992 124.5,469C 116.565,465.456 114.398,459.622 118,451.5C 119.214,449.951 120.714,448.785 122.5,448C 132.5,447.667 142.5,447.333 152.5,447C 176.763,428.539 192.43,404.373 199.5,374.5C 148.837,373.667 98.17,373.167 47.5,373C 26.789,369.289 14.289,357.123 10,336.5C 9.33333,250.833 9.33333,165.167 10,79.5C 14.0131,58.3209 26.5131,45.6542 47.5,41.5 Z M 53.5,63.5 C 188.167,63.3333 322.834,63.5 457.5,64C 470.667,65.1667 477.833,72.3333 479,85.5C 479.5,152.833 479.667,220.166 479.5,287.5C 330.167,287.5 180.833,287.5 31.5,287.5C 31.3333,220.166 31.5,152.833 32,85.5C 33.3444,72.3234 40.5111,64.9901 53.5,63.5 Z M 31.5,309.5 C 180.833,309.5 330.167,309.5 479.5,309.5C 479.764,318.546 479.264,327.546 478,336.5C 475.5,343 471,347.5 464.5,350C 394.859,351.155 325.193,351.655 255.5,351.5C 185.807,351.655 116.141,351.155 46.5,350C 40,347.5 35.5,343 33,336.5C 31.7356,327.546 31.2356,318.546 31.5,309.5 Z M 222.5,373.5 C 244.5,373.5 266.5,373.5 288.5,373.5C 292.914,401.827 304.914,426.327 324.5,447C 278.5,447.667 232.5,447.667 186.5,447C 206.083,426.332 218.083,401.832 222.5,373.5 Z"/></g>
<g><path style="opacity:0.89" fill="#000000" d="M 250.5,319.5 C 262.489,317.657 267.656,322.657 266,334.5C 260.127,342.923 253.46,343.589 246,336.5C 242.931,329.46 244.431,323.793 250.5,319.5 Z"/></g>
</svg>
